<mxfile etag="DcpABVKIP1h8LxYDXswQ" agent="5.0 (Windows NT 10.0; Win64; x64) AppleWebKit/537.36 (KHTML, like Gecko) Chrome/85.0.4183.121 Safari/537.36" host="app.diagrams.net" modified="2020-10-02T10:30:35.750Z" version="13.7.7" type="github">
  <diagram id="RekH_1G7RWVAD5rtdvup" name="untitled">
    <mxGraphModel dx="1182" dy="388" grid="1" gridSize="10" guides="1" tooltips="1" connect="1" arrows="1" fold="1" page="0" pageScale="1" pageWidth="827" pageHeight="1169" background="none" math="0" shadow="0">
      <root>
        <mxCell id="6bo9QPTR8BAE27Jl6f97-0" />
        <mxCell id="6bo9QPTR8BAE27Jl6f97-1" parent="6bo9QPTR8BAE27Jl6f97-0" />
        <mxCell id="AFFleFbOA_NaLcwn-8TM-2" value="" style="aspect=fixed;html=1;points=[];align=center;image;fontSize=12;image=img/lib/mscae/Docker.svg;" parent="6bo9QPTR8BAE27Jl6f97-1" vertex="1">
          <mxGeometry x="130" y="192.5" width="50" height="41" as="geometry" />
        </mxCell>
        <mxCell id="6sv9-S7iVqy-Pt7Is2Te-0" value="one products topic" style="html=1;outlineConnect=0;fillColor=#76608a;strokeColor=#432D57;gradientDirection=north;strokeWidth=2;shape=mxgraph.networks.bus;gradientColor=none;gradientDirection=north;fontColor=#ffffff;perimeter=backbonePerimeter;backboneSize=20;rotation=0;horizontal=1;" parent="6bo9QPTR8BAE27Jl6f97-1" vertex="1">
          <mxGeometry x="125" y="330.5" width="230" height="20" as="geometry" />
        </mxCell>
        <mxCell id="6sv9-S7iVqy-Pt7Is2Te-2" value="product-producer" style="rounded=1;whiteSpace=wrap;html=1;" parent="6bo9QPTR8BAE27Jl6f97-1" vertex="1">
          <mxGeometry x="180" y="183" width="120" height="60" as="geometry" />
        </mxCell>
        <mxCell id="G2DQx5q_0J_Hvf2mpVK6-37" value="Kafka" style="rounded=0;whiteSpace=wrap;html=1;" parent="6bo9QPTR8BAE27Jl6f97-1" vertex="1">
          <mxGeometry x="-195" y="472" width="120" height="60" as="geometry" />
        </mxCell>
        <mxCell id="G2DQx5q_0J_Hvf2mpVK6-38" value="" style="aspect=fixed;html=1;points=[];align=center;image;fontSize=12;image=img/lib/mscae/Docker.svg;" parent="6bo9QPTR8BAE27Jl6f97-1" vertex="1">
          <mxGeometry x="-245" y="481.5" width="50" height="41" as="geometry" />
        </mxCell>
        <mxCell id="G2DQx5q_0J_Hvf2mpVK6-39" value="" style="endArrow=classic;html=1;exitX=1;exitY=0;exitDx=0;exitDy=0;" parent="6bo9QPTR8BAE27Jl6f97-1" source="G2DQx5q_0J_Hvf2mpVK6-37" target="6sv9-S7iVqy-Pt7Is2Te-0" edge="1">
          <mxGeometry width="50" height="50" relative="1" as="geometry">
            <mxPoint x="-148" y="514.5" as="sourcePoint" />
            <mxPoint x="-18" y="415" as="targetPoint" />
          </mxGeometry>
        </mxCell>
        <mxCell id="G2DQx5q_0J_Hvf2mpVK6-45" value="" style="endArrow=classic;html=1;entryX=0.02;entryY=0;entryDx=0;entryDy=0;entryPerimeter=0;exitX=0.75;exitY=1;exitDx=0;exitDy=0;" parent="6bo9QPTR8BAE27Jl6f97-1" source="G2DQx5q_0J_Hvf2mpVK6-37" target="wLk9wJPV_KywOvrw5g_5-9" edge="1">
          <mxGeometry width="50" height="50" relative="1" as="geometry">
            <mxPoint x="-158" y="634.5" as="sourcePoint" />
            <mxPoint x="-18" y="824.5" as="targetPoint" />
          </mxGeometry>
        </mxCell>
        <mxCell id="wLk9wJPV_KywOvrw5g_5-0" value="products" style="shape=flexArrow;endArrow=classic;html=1;exitX=0.5;exitY=1;exitDx=0;exitDy=0;fillColor=#f5f5f5;strokeColor=#666666;" parent="6bo9QPTR8BAE27Jl6f97-1" source="6sv9-S7iVqy-Pt7Is2Te-2" target="6sv9-S7iVqy-Pt7Is2Te-0" edge="1">
          <mxGeometry width="50" height="50" relative="1" as="geometry">
            <mxPoint x="236.99999999999997" y="234" as="sourcePoint" />
            <mxPoint x="237.35" y="327" as="targetPoint" />
          </mxGeometry>
        </mxCell>
        <mxCell id="wLk9wJPV_KywOvrw5g_5-3" value="" style="group" parent="6bo9QPTR8BAE27Jl6f97-1" vertex="1" connectable="0">
          <mxGeometry x="10" y="435" width="190.3" height="60" as="geometry" />
        </mxCell>
        <mxCell id="wLk9wJPV_KywOvrw5g_5-1" value="" style="group" parent="wLk9wJPV_KywOvrw5g_5-3" vertex="1" connectable="0">
          <mxGeometry width="190.3" height="60" as="geometry" />
        </mxCell>
        <mxCell id="6sv9-S7iVqy-Pt7Is2Te-7" value="" style="aspect=fixed;html=1;points=[];align=center;image;fontSize=12;image=img/lib/mscae/Docker.svg;" parent="wLk9wJPV_KywOvrw5g_5-1" vertex="1">
          <mxGeometry x="20.3" y="9.5" width="50" height="41" as="geometry" />
        </mxCell>
        <mxCell id="6sv9-S7iVqy-Pt7Is2Te-3" value="strategy-add-3" style="rounded=1;whiteSpace=wrap;html=1;" parent="wLk9wJPV_KywOvrw5g_5-1" vertex="1">
          <mxGeometry x="70.30000000000001" width="120" height="60" as="geometry" />
        </mxCell>
        <mxCell id="wLk9wJPV_KywOvrw5g_5-2" value="products" style="shape=flexArrow;endArrow=classic;html=1;fillColor=#f5f5f5;strokeColor=#666666;dashed=1;" parent="wLk9wJPV_KywOvrw5g_5-3" source="6sv9-S7iVqy-Pt7Is2Te-0" target="6sv9-S7iVqy-Pt7Is2Te-3" edge="1">
          <mxGeometry width="50" height="50" relative="1" as="geometry">
            <mxPoint x="240" y="-205" as="sourcePoint" />
            <mxPoint x="240" y="-94.32352941176475" as="targetPoint" />
          </mxGeometry>
        </mxCell>
        <mxCell id="wLk9wJPV_KywOvrw5g_5-4" value="" style="group" parent="6bo9QPTR8BAE27Jl6f97-1" vertex="1" connectable="0">
          <mxGeometry x="228" y="435" width="190.3" height="60" as="geometry" />
        </mxCell>
        <mxCell id="wLk9wJPV_KywOvrw5g_5-5" value="" style="group" parent="wLk9wJPV_KywOvrw5g_5-4" vertex="1" connectable="0">
          <mxGeometry width="190.3" height="60" as="geometry" />
        </mxCell>
        <mxCell id="wLk9wJPV_KywOvrw5g_5-6" value="" style="aspect=fixed;html=1;points=[];align=center;image;fontSize=12;image=img/lib/mscae/Docker.svg;" parent="wLk9wJPV_KywOvrw5g_5-5" vertex="1">
          <mxGeometry x="20.3" y="9.5" width="50" height="41" as="geometry" />
        </mxCell>
        <mxCell id="wLk9wJPV_KywOvrw5g_5-7" value="strategy-add-10" style="rounded=1;whiteSpace=wrap;html=1;" parent="wLk9wJPV_KywOvrw5g_5-5" vertex="1">
          <mxGeometry x="70.30000000000001" width="120" height="60" as="geometry" />
        </mxCell>
        <mxCell id="wLk9wJPV_KywOvrw5g_5-8" value="products" style="shape=flexArrow;endArrow=classic;html=1;fillColor=#f5f5f5;strokeColor=#666666;dashed=1;" parent="6bo9QPTR8BAE27Jl6f97-1" source="6sv9-S7iVqy-Pt7Is2Te-0" target="wLk9wJPV_KywOvrw5g_5-7" edge="1">
          <mxGeometry width="50" height="50" relative="1" as="geometry">
            <mxPoint x="465" y="229" as="sourcePoint" />
            <mxPoint x="465" y="339.67647058823525" as="targetPoint" />
          </mxGeometry>
        </mxCell>
        <mxCell id="wLk9wJPV_KywOvrw5g_5-35" style="edgeStyle=none;shape=flexArrow;rounded=0;orthogonalLoop=1;jettySize=auto;html=1;entryX=0.5;entryY=0;entryDx=0;entryDy=0;fillColor=#d5e8d4;strokeColor=#82b366;dashed=1;" parent="6bo9QPTR8BAE27Jl6f97-1" source="wLk9wJPV_KywOvrw5g_5-9" target="wLk9wJPV_KywOvrw5g_5-23" edge="1">
          <mxGeometry relative="1" as="geometry" />
        </mxCell>
        <mxCell id="wLk9wJPV_KywOvrw5g_5-36" value="Product_n&lt;br&gt;Result" style="edgeLabel;html=1;align=center;verticalAlign=middle;resizable=0;points=[];" parent="wLk9wJPV_KywOvrw5g_5-35" vertex="1" connectable="0">
          <mxGeometry x="-0.3128" y="-2" relative="1" as="geometry">
            <mxPoint x="2.85" y="18.14" as="offset" />
          </mxGeometry>
        </mxCell>
        <mxCell id="wLk9wJPV_KywOvrw5g_5-9" value="mulitple results topics" style="html=1;outlineConnect=0;fillColor=#76608a;strokeColor=#432D57;gradientDirection=north;strokeWidth=2;shape=mxgraph.networks.bus;gradientColor=none;gradientDirection=north;fontColor=#ffffff;perimeter=backbonePerimeter;backboneSize=20;rotation=0;horizontal=1;" parent="6bo9QPTR8BAE27Jl6f97-1" vertex="1">
          <mxGeometry x="-33" y="658" width="561" height="20" as="geometry" />
        </mxCell>
        <mxCell id="wLk9wJPV_KywOvrw5g_5-10" value="Product_1&lt;br&gt;Result" style="shape=flexArrow;endArrow=classic;html=1;fillColor=#dae8fc;strokeColor=#6c8ebf;" parent="6bo9QPTR8BAE27Jl6f97-1" target="wLk9wJPV_KywOvrw5g_5-9" edge="1">
          <mxGeometry x="-0.4629" width="50" height="50" relative="1" as="geometry">
            <mxPoint x="98.32409638554213" y="495.00285714285724" as="sourcePoint" />
            <mxPoint x="98.3240963855419" y="770.4285714285713" as="targetPoint" />
            <mxPoint as="offset" />
          </mxGeometry>
        </mxCell>
        <mxCell id="wLk9wJPV_KywOvrw5g_5-11" value="Product_2&lt;br&gt;Result" style="shape=flexArrow;endArrow=classic;html=1;exitX=0.5;exitY=1;exitDx=0;exitDy=0;fillColor=#ffe6cc;strokeColor=#d79b00;" parent="6bo9QPTR8BAE27Jl6f97-1" target="wLk9wJPV_KywOvrw5g_5-9" edge="1">
          <mxGeometry x="-0.2313" width="50" height="50" relative="1" as="geometry">
            <mxPoint x="139.29999999999995" y="495" as="sourcePoint" />
            <mxPoint x="139.29999999999995" y="770.4285714285713" as="targetPoint" />
            <mxPoint y="-1" as="offset" />
          </mxGeometry>
        </mxCell>
        <mxCell id="wLk9wJPV_KywOvrw5g_5-13" value="Product_1&lt;br&gt;Result" style="shape=flexArrow;endArrow=classic;html=1;fillColor=#dae8fc;strokeColor=#6c8ebf;" parent="6bo9QPTR8BAE27Jl6f97-1" target="wLk9wJPV_KywOvrw5g_5-9" edge="1">
          <mxGeometry x="-0.4629" width="50" height="50" relative="1" as="geometry">
            <mxPoint x="315.00409638554214" y="496.00285714285724" as="sourcePoint" />
            <mxPoint x="315.0040963855417" y="771.4285714285713" as="targetPoint" />
            <mxPoint as="offset" />
          </mxGeometry>
        </mxCell>
        <mxCell id="wLk9wJPV_KywOvrw5g_5-14" value="Product_2&lt;br&gt;Result" style="shape=flexArrow;endArrow=classic;html=1;exitX=0.5;exitY=1;exitDx=0;exitDy=0;fillColor=#ffe6cc;strokeColor=#d79b00;" parent="6bo9QPTR8BAE27Jl6f97-1" target="wLk9wJPV_KywOvrw5g_5-9" edge="1">
          <mxGeometry x="-0.2313" width="50" height="50" relative="1" as="geometry">
            <mxPoint x="355.97999999999996" y="496" as="sourcePoint" />
            <mxPoint x="355.97999999999996" y="771.4285714285713" as="targetPoint" />
            <mxPoint y="-1" as="offset" />
          </mxGeometry>
        </mxCell>
        <mxCell id="wLk9wJPV_KywOvrw5g_5-15" value="Product_n&lt;br&gt;Result" style="shape=flexArrow;endArrow=classic;html=1;fillColor=#d5e8d4;strokeColor=#82b366;" parent="6bo9QPTR8BAE27Jl6f97-1" target="wLk9wJPV_KywOvrw5g_5-9" edge="1">
          <mxGeometry x="0.0853" width="50" height="50" relative="1" as="geometry">
            <mxPoint x="399.0040963855419" y="495.00285714285724" as="sourcePoint" />
            <mxPoint x="399.00409638554237" y="771.4285714285713" as="targetPoint" />
            <mxPoint as="offset" />
          </mxGeometry>
        </mxCell>
        <mxCell id="wLk9wJPV_KywOvrw5g_5-16" value="Product_n&lt;br&gt;Result" style="shape=flexArrow;endArrow=classic;html=1;exitX=0.5;exitY=1;exitDx=0;exitDy=0;fillColor=#d5e8d4;strokeColor=#82b366;" parent="6bo9QPTR8BAE27Jl6f97-1" target="wLk9wJPV_KywOvrw5g_5-9" edge="1">
          <mxGeometry x="0.0674" width="50" height="50" relative="1" as="geometry">
            <mxPoint x="181.99999999999994" y="494" as="sourcePoint" />
            <mxPoint x="181.99999999999994" y="769.4285714285713" as="targetPoint" />
            <mxPoint as="offset" />
          </mxGeometry>
        </mxCell>
        <mxCell id="wLk9wJPV_KywOvrw5g_5-18" value="" style="group" parent="6bo9QPTR8BAE27Jl6f97-1" vertex="1" connectable="0">
          <mxGeometry x="-73" y="775" width="188.15" height="60" as="geometry" />
        </mxCell>
        <mxCell id="G2DQx5q_0J_Hvf2mpVK6-13" value="product-aggregator-1" style="rounded=1;whiteSpace=wrap;html=1;" parent="wLk9wJPV_KywOvrw5g_5-18" vertex="1">
          <mxGeometry x="68.15" width="120" height="60" as="geometry" />
        </mxCell>
        <mxCell id="G2DQx5q_0J_Hvf2mpVK6-14" value="" style="aspect=fixed;html=1;points=[];align=center;image;fontSize=12;image=img/lib/mscae/Docker.svg;" parent="wLk9wJPV_KywOvrw5g_5-18" vertex="1">
          <mxGeometry x="18.15" y="9.5" width="50" height="41" as="geometry" />
        </mxCell>
        <mxCell id="wLk9wJPV_KywOvrw5g_5-22" value="" style="group" parent="6bo9QPTR8BAE27Jl6f97-1" vertex="1" connectable="0">
          <mxGeometry x="320" y="775" width="188.15" height="60" as="geometry" />
        </mxCell>
        <mxCell id="wLk9wJPV_KywOvrw5g_5-23" value="product-aggregator-n" style="rounded=1;whiteSpace=wrap;html=1;" parent="wLk9wJPV_KywOvrw5g_5-22" vertex="1">
          <mxGeometry x="68.15" width="120" height="60" as="geometry" />
        </mxCell>
        <mxCell id="wLk9wJPV_KywOvrw5g_5-24" value="" style="aspect=fixed;html=1;points=[];align=center;image;fontSize=12;image=img/lib/mscae/Docker.svg;" parent="wLk9wJPV_KywOvrw5g_5-22" vertex="1">
          <mxGeometry x="18.15" y="9.5" width="50" height="41" as="geometry" />
        </mxCell>
        <mxCell id="wLk9wJPV_KywOvrw5g_5-30" value="Product_1&lt;br&gt;Result" style="shape=flexArrow;endArrow=classic;html=1;entryX=0.5;entryY=0;entryDx=0;entryDy=0;fillColor=#dae8fc;strokeColor=#6c8ebf;dashed=1;" parent="6bo9QPTR8BAE27Jl6f97-1" source="wLk9wJPV_KywOvrw5g_5-9" target="G2DQx5q_0J_Hvf2mpVK6-13" edge="1">
          <mxGeometry x="-0.0318" width="50" height="50" relative="1" as="geometry">
            <mxPoint x="108.32409638554213" y="505.00285714285724" as="sourcePoint" />
            <mxPoint x="108.32409638554168" y="780.4285714285713" as="targetPoint" />
            <mxPoint y="1" as="offset" />
          </mxGeometry>
        </mxCell>
        <mxCell id="wLk9wJPV_KywOvrw5g_5-32" value="" style="group" parent="6bo9QPTR8BAE27Jl6f97-1" vertex="1" connectable="0">
          <mxGeometry x="122" y="775" width="188.15" height="60" as="geometry" />
        </mxCell>
        <mxCell id="wLk9wJPV_KywOvrw5g_5-19" value="" style="group" parent="wLk9wJPV_KywOvrw5g_5-32" vertex="1" connectable="0">
          <mxGeometry width="188.15" height="60" as="geometry" />
        </mxCell>
        <mxCell id="wLk9wJPV_KywOvrw5g_5-20" value="product-aggregator-2" style="rounded=1;whiteSpace=wrap;html=1;" parent="wLk9wJPV_KywOvrw5g_5-19" vertex="1">
          <mxGeometry x="68.15" width="120" height="60" as="geometry" />
        </mxCell>
        <mxCell id="wLk9wJPV_KywOvrw5g_5-21" value="" style="aspect=fixed;html=1;points=[];align=center;image;fontSize=12;image=img/lib/mscae/Docker.svg;" parent="wLk9wJPV_KywOvrw5g_5-19" vertex="1">
          <mxGeometry x="18.15" y="9.5" width="50" height="41" as="geometry" />
        </mxCell>
        <mxCell id="wLk9wJPV_KywOvrw5g_5-34" style="edgeStyle=none;shape=flexArrow;rounded=0;orthogonalLoop=1;jettySize=auto;html=1;exitX=0.75;exitY=1;exitDx=0;exitDy=0;" parent="wLk9wJPV_KywOvrw5g_5-19" source="wLk9wJPV_KywOvrw5g_5-20" target="wLk9wJPV_KywOvrw5g_5-20" edge="1">
          <mxGeometry relative="1" as="geometry" />
        </mxCell>
        <mxCell id="wLk9wJPV_KywOvrw5g_5-37" value="Product_2&lt;br&gt;Result" style="shape=flexArrow;endArrow=classic;html=1;entryX=0.5;entryY=0;entryDx=0;entryDy=0;fillColor=#ffe6cc;strokeColor=#d79b00;dashed=1;" parent="6bo9QPTR8BAE27Jl6f97-1" source="wLk9wJPV_KywOvrw5g_5-9" target="wLk9wJPV_KywOvrw5g_5-20" edge="1">
          <mxGeometry x="-0.0318" width="50" height="50" relative="1" as="geometry">
            <mxPoint x="200.30000000000013" y="780.0028571428574" as="sourcePoint" />
            <mxPoint x="200.30000000000013" y="884.86" as="targetPoint" />
            <mxPoint y="1" as="offset" />
          </mxGeometry>
        </mxCell>
        <mxCell id="wLk9wJPV_KywOvrw5g_5-38" value="Produces multiple &quot;products&quot; to a &lt;br&gt;kafka topic named &quot;products&quot;" style="text;html=1;align=left;verticalAlign=middle;resizable=0;points=[];autosize=1;" parent="6bo9QPTR8BAE27Jl6f97-1" vertex="1">
          <mxGeometry x="345" y="197" width="187" height="32" as="geometry" />
        </mxCell>
        <mxCell id="wLk9wJPV_KywOvrw5g_5-39" value="Multiple parallel strategy containers &lt;br&gt;listening to the &quot;products&quot; topic" style="text;html=1;align=left;verticalAlign=middle;resizable=0;points=[];autosize=1;" parent="6bo9QPTR8BAE27Jl6f97-1" vertex="1">
          <mxGeometry x="449" y="449" width="198" height="32" as="geometry" />
        </mxCell>
        <mxCell id="wLk9wJPV_KywOvrw5g_5-40" value="For each product on &quot;products&quot; topic, &lt;br&gt;strategy executes and produces &lt;br&gt;a &quot;results&quot; message on a topic&amp;nbsp;&lt;span&gt;specific &lt;br&gt;to each product&lt;/span&gt;" style="text;html=1;align=left;verticalAlign=middle;resizable=0;points=[];autosize=1;" parent="6bo9QPTR8BAE27Jl6f97-1" vertex="1">
          <mxGeometry x="460" y="558" width="215" height="60" as="geometry" />
        </mxCell>
        <mxCell id="wLk9wJPV_KywOvrw5g_5-41" value="Multiple parallel &quot;product aggregator&quot; containers &lt;br&gt;listening to one result topic each.&lt;br&gt;&lt;br&gt;These wait until all results have been consumed&lt;br&gt;before sending out the aggregated results to &lt;br&gt;wherever they need to go." style="text;html=1;align=left;verticalAlign=middle;resizable=0;points=[];autosize=1;" parent="6bo9QPTR8BAE27Jl6f97-1" vertex="1">
          <mxGeometry x="545" y="761" width="265" height="88" as="geometry" />
        </mxCell>
      </root>
    </mxGraphModel>
  </diagram>
</mxfile>
